<svg xmlns="http://www.w3.org/2000/svg" xmlns:xlink="http://www.w3.org/1999/xlink" width="500" zoomAndPan="magnify" viewBox="0 0 375 374.999991" height="500" preserveAspectRatio="xMidYMid meet" version="1.2"><defs/><g id="0e1e6c9632"><g style="fill:#ff00ff;fill-opacity:1;"><g transform="translate(57.574219, 308.578171)"><path style="stroke:none" d="M 45.90625 -49.515625 L 129.75 -252.265625 L 133.359375 -252.265625 L 216.84375 -48.796875 C 222.382812 -35.054688 227.863281 -24.570312 233.28125 -17.34375 C 238.707031 -10.113281 245.757812 -6.5 254.4375 -6.5 L 254.4375 0 L 138.421875 0 L 138.421875 -6.5 C 149.984375 -6.738281 157.691406 -7.640625 161.546875 -9.203125 C 165.398438 -10.773438 167.328125 -14.332031 167.328125 -19.875 C 167.328125 -21.5625 166.90625 -23.488281 166.0625 -25.65625 C 165.21875 -27.820312 164.554688 -29.628906 164.078125 -31.078125 L 148.53125 -70.109375 L 69.03125 -70.109375 L 57.828125 -43 C 54.453125 -36.257812 52.765625 -30.359375 52.765625 -25.296875 C 52.765625 -17.828125 55.535156 -12.828125 61.078125 -10.296875 C 66.617188 -7.765625 74.445312 -6.5 84.5625 -6.5 L 84.5625 0 L 5.0625 0 L 5.0625 -6.5 C 13.25 -7.226562 20.59375 -10.960938 27.09375 -17.703125 C 33.601562 -24.453125 39.875 -35.054688 45.90625 -49.515625 Z M 143.109375 -83.484375 L 108.78125 -166.609375 L 74.453125 -83.484375 Z M 143.109375 -83.484375 "/></g></g><g style="fill:#00ffff;fill-opacity:1;"><g transform="translate(57.574219, 331.165964)"><path style="stroke:none" d="M 45.90625 -49.515625 L 129.75 -252.265625 L 133.359375 -252.265625 L 216.84375 -48.796875 C 222.382812 -35.054688 227.863281 -24.570312 233.28125 -17.34375 C 238.707031 -10.113281 245.757812 -6.5 254.4375 -6.5 L 254.4375 0 L 138.421875 0 L 138.421875 -6.5 C 149.984375 -6.738281 157.691406 -7.640625 161.546875 -9.203125 C 165.398438 -10.773438 167.328125 -14.332031 167.328125 -19.875 C 167.328125 -21.5625 166.90625 -23.488281 166.0625 -25.65625 C 165.21875 -27.820312 164.554688 -29.628906 164.078125 -31.078125 L 148.53125 -70.109375 L 69.03125 -70.109375 L 57.828125 -43 C 54.453125 -36.257812 52.765625 -30.359375 52.765625 -25.296875 C 52.765625 -17.828125 55.535156 -12.828125 61.078125 -10.296875 C 66.617188 -7.765625 74.445312 -6.5 84.5625 -6.5 L 84.5625 0 L 5.0625 0 L 5.0625 -6.5 C 13.25 -7.226562 20.59375 -10.960938 27.09375 -17.703125 C 33.601562 -24.453125 39.875 -35.054688 45.90625 -49.515625 Z M 143.109375 -83.484375 L 108.78125 -166.609375 L 74.453125 -83.484375 Z M 143.109375 -83.484375 "/></g></g><g style="fill:#000000;fill-opacity:1;"><g transform="translate(57.574219, 319.872067)"><path style="stroke:none" d="M 45.90625 -49.515625 L 129.75 -252.265625 L 133.359375 -252.265625 L 216.84375 -48.796875 C 222.382812 -35.054688 227.863281 -24.570312 233.28125 -17.34375 C 238.707031 -10.113281 245.757812 -6.5 254.4375 -6.5 L 254.4375 0 L 138.421875 0 L 138.421875 -6.5 C 149.984375 -6.738281 157.691406 -7.640625 161.546875 -9.203125 C 165.398438 -10.773438 167.328125 -14.332031 167.328125 -19.875 C 167.328125 -21.5625 166.90625 -23.488281 166.0625 -25.65625 C 165.21875 -27.820312 164.554688 -29.628906 164.078125 -31.078125 L 148.53125 -70.109375 L 69.03125 -70.109375 L 57.828125 -43 C 54.453125 -36.257812 52.765625 -30.359375 52.765625 -25.296875 C 52.765625 -17.828125 55.535156 -12.828125 61.078125 -10.296875 C 66.617188 -7.765625 74.445312 -6.5 84.5625 -6.5 L 84.5625 0 L 5.0625 0 L 5.0625 -6.5 C 13.25 -7.226562 20.59375 -10.960938 27.09375 -17.703125 C 33.601562 -24.453125 39.875 -35.054688 45.90625 -49.515625 Z M 143.109375 -83.484375 L 108.78125 -166.609375 L 74.453125 -83.484375 Z M 143.109375 -83.484375 "/></g></g></g></svg>